<svg xmlns="http://www.w3.org/2000/svg" xmlns:xlink="http://www.w3.org/1999/xlink" zoomAndPan="magnify"
    viewBox="0 0 450 750" preserveAspectRatio="xMidYMid meet" version="1.0">
    <defs>
        <clipPath id="3c1592eddd">
            <path d="M 25 0 L 364.5 0 L 364.5 412.5 L 25 412.5 Z M 25 0 " clip-rule="nonzero" />
        </clipPath>
    </defs>
    <rect x="-45" fill="#ffffff" y="-74.999999" fill-opacity="1" />
    <g clip-path="url(#3c1592eddd)">
        <path fill="#cfcfcf"
            d="M 365.046875 368.496094 C 365.046875 392.761719 345.375 412.429688 321.09375 412.429688 L 69.875 412.429688 C 45.605469 412.429688 25.917969 392.761719 25.917969 368.496094 L 25.917969 43.875 C 25.917969 19.617188 45.605469 -0.0507812 69.875 -0.0507812 L 321.09375 -0.0507812 C 345.375 -0.0507812 365.046875 19.617188 365.046875 43.875 L 365.046875 368.496094 "
            fill-opacity="1" fill-rule="nonzero" />
    </g>
    <path fill="#ffffff"
        d="M 240.816406 145.554688 C 240.816406 163.953125 238.148438 202.621094 232.035156 207.007812 C 225.917969 211.390625 212.503906 222.101562 202.941406 222.101562 C 194.382812 222.101562 180.730469 213.355469 174.933594 208.652344 C 169.144531 203.953125 162.3125 167.472656 162.3125 147.742188 C 162.3125 123.601562 179.28125 110.160156 202.941406 110.160156 C 226.59375 110.160156 240.816406 123.601562 240.816406 145.554688 "
        fill-opacity="1" fill-rule="nonzero" />
    <path fill="#ffffff"
        d="M 182.625 213.042969 L 178.082031 228.753906 C 178.082031 228.753906 136.503906 242.675781 131.566406 248.707031 C 126.625 254.75 117.839844 293.164062 117.839844 293.164062 L 295.171875 293.164062 C 295.171875 293.164062 287.488281 252.148438 278.15625 245.972656 C 267.585938 238.972656 231.859375 228.714844 231.859375 228.714844 L 226.363281 211.136719 "
        fill-opacity="1" fill-rule="nonzero" />
    <path fill="#ffffff"
        d="M 237.113281 162.003906 C 237.113281 162.003906 239.585938 152.953125 245.761719 155.839844 C 250.761719 158.171875 247.816406 172.097656 246.171875 175.382812 C 244.523438 178.675781 245.464844 183.519531 240.816406 185.875 C 237.972656 187.328125 236.296875 183.410156 236.296875 183.410156 "
        fill-opacity="1" fill-rule="nonzero" />
    <path fill="#ffffff"
        d="M 166.195312 162.003906 C 166.195312 162.003906 163.726562 152.953125 157.546875 155.839844 C 152.539062 158.171875 155.480469 172.097656 157.136719 175.382812 C 158.785156 178.675781 157.84375 183.519531 162.488281 185.875 C 165.324219 187.328125 167.019531 183.410156 167.019531 183.410156 "
        fill-opacity="1" fill-rule="nonzero" />
    <path fill="#ffffff"
        d="M 82.878906 89.597656 C 82.878906 100.953125 73.675781 110.160156 62.308594 110.160156 C 50.949219 110.160156 41.738281 100.953125 41.738281 89.597656 C 41.738281 78.242188 50.949219 69.039062 62.308594 69.039062 C 73.675781 69.039062 82.878906 78.242188 82.878906 89.597656 "
        fill-opacity="1" fill-rule="nonzero" />
    <path fill="#ffffff"
        d="M 82.878906 201.539062 C 82.878906 212.898438 73.675781 222.101562 62.308594 222.101562 C 50.949219 222.101562 41.738281 212.898438 41.738281 201.539062 C 41.738281 190.179688 50.949219 180.980469 62.308594 180.980469 C 73.675781 180.980469 82.878906 190.179688 82.878906 201.539062 "
        fill-opacity="1" fill-rule="nonzero" />
    <path fill="#ffffff"
        d="M 82.878906 326.25 C 82.878906 337.601562 73.675781 346.800781 62.308594 346.800781 C 50.949219 346.800781 41.738281 337.601562 41.738281 326.25 C 41.738281 314.890625 50.949219 305.6875 62.308594 305.6875 C 73.675781 305.6875 82.878906 314.890625 82.878906 326.25 "
        fill-opacity="1" fill-rule="nonzero" />
    <path fill="#393536"
        d="M 72.066406 89.597656 C 72.066406 99.148438 66.695312 106.886719 60.066406 106.886719 L 12.074219 106.886719 C 5.441406 106.886719 0.078125 99.148438 0.078125 89.597656 C 0.078125 80.046875 5.441406 72.320312 12.074219 72.320312 L 60.066406 72.320312 C 66.695312 72.320312 72.066406 80.046875 72.066406 89.597656 "
        fill-opacity="1" fill-rule="nonzero" />
    <path fill="#393536"
        d="M 72.066406 201.539062 C 72.066406 211.09375 66.695312 218.828125 60.066406 218.828125 L 12.074219 218.828125 C 5.441406 218.828125 0.078125 211.09375 0.078125 201.539062 C 0.078125 191.992188 5.441406 184.261719 12.074219 184.261719 L 60.066406 184.261719 C 66.695312 184.261719 72.066406 191.992188 72.066406 201.539062 "
        fill-opacity="1" fill-rule="nonzero" />
    <path fill="#393536"
        d="M 72.066406 326.25 C 72.066406 335.792969 66.695312 343.53125 60.066406 343.53125 L 12.074219 343.53125 C 5.441406 343.53125 0.078125 335.792969 0.078125 326.25 C 0.078125 316.695312 5.441406 308.957031 12.074219 308.957031 L 60.066406 308.957031 C 66.695312 308.957031 72.066406 316.695312 72.066406 326.25 "
        fill-opacity="1" fill-rule="nonzero" />
</svg>